<?xml version="1.0" standalone="no"?><!DOCTYPE svg PUBLIC "-//W3C//DTD SVG 1.1//EN" "http://www.w3.org/Graphics/SVG/1.1/DTD/svg11.dtd"><svg t="1559044086832" class="icon" style="" viewBox="0 0 1024 1024" version="1.1" xmlns="http://www.w3.org/2000/svg" p-id="2062" xmlns:xlink="http://www.w3.org/1999/xlink" width="16" height="16"><defs><style type="text/css"></style></defs><path d="M506.996 855.123c-8.245 0-15.51-3.167-21.823-9.503l-442.643-442.621c-6.336-6.336-9.477-13.625-9.477-21.86899999s3.142-15.51 9.47700001-21.84500001l47.50999999-47.48499999c6.336-6.336 13.6-9.502 21.845-9.50200001 8.22199999 0 15.51 3.167 21.845 9.50200001l373.29 373.29 373.267-373.29300001c6.336-6.336 13.6-9.502 21.845-9.502s15.533 3.167 21.869 9.503l47.484 47.484c6.336 6.336 9.502 13.6 9.502 21.845s-3.167 15.533-9.503 21.869l-442.622 442.62099999c-6.334 6.334-13.625 9.503-21.869 9.50300001z" p-id="2063"></path></svg>