<?xml version="1.0" standalone="no"?><!DOCTYPE svg PUBLIC "-//W3C//DTD SVG 1.1//EN" "http://www.w3.org/Graphics/SVG/1.1/DTD/svg11.dtd"><svg class="icon" width="16px" height="16.00px" viewBox="0 0 1024 1024" version="1.1" xmlns="http://www.w3.org/2000/svg"><path fill="#2c2c2c" d="M168.877 506.996c0-8.245 3.167-15.51 9.503-21.823l442.621-442.643c6.336-6.336 13.625-9.477 21.86899999-9.477s15.51 3.142 21.84500001 9.47700001l47.48499999 47.50999999c6.336 6.336 9.502 13.6 9.50200001 21.845 0 8.22199999-3.167 15.51-9.50200001 21.845l-373.29 373.29 373.29300001 373.267c6.336 6.336 9.502 13.6 9.502 21.845s-3.167 15.533-9.503 21.869l-47.484 47.484c-6.336 6.336-13.6 9.502-21.845 9.502s-15.533-3.167-21.869-9.503l-442.62099999-442.622c-6.334-6.334-9.503-13.625-9.50300001-21.869z" /></svg>