<?xml version="1.0" standalone="no"?><!DOCTYPE svg PUBLIC "-//W3C//DTD SVG 1.1//EN" "http://www.w3.org/Graphics/SVG/1.1/DTD/svg11.dtd"><svg class="icon" width="16px" height="16.00px" viewBox="0 0 1024 1024" version="1.1" xmlns="http://www.w3.org/2000/svg"><path fill="#2c2c2c" d="M872.27915 511.92086667c0 8.65725-3.32535 16.2855-9.97815 22.91415l-464.75205 464.77515c-6.6528 6.6528-14.30625 9.95085-22.96244999 9.95085s-16.2855-3.2991-22.93725001-9.95085001l-49.85924999-49.88549999c-6.6528-6.6528-9.9771-14.28-9.97710001-22.93725 0-8.6331 3.32535-16.2855 9.97710001-22.93724999l391.95450001-391.95450001-391.95765002-391.93035c-6.6528-6.6528-9.9771-14.28-9.97710001-22.93725s3.32535-16.30965 9.97815001-22.96245l49.85820001-49.8582c6.6528-6.6528 14.28-9.9771 22.93724999-9.9771s16.30965 3.32535 22.96245 9.97815l464.75204999 464.7531c6.6507 6.6507 9.97815 14.30625 9.97815001 22.96245z" /></svg>