<?xml version="1.0" standalone="no"?><!DOCTYPE svg PUBLIC "-//W3C//DTD SVG 1.1//EN" "http://www.w3.org/Graphics/SVG/1.1/DTD/svg11.dtd"><svg t="1559307308631" class="icon" style="" viewBox="0 0 1024 1024" version="1.1" xmlns="http://www.w3.org/2000/svg" p-id="2556" xmlns:xlink="http://www.w3.org/1999/xlink" width="16" height="16"><defs><style type="text/css"></style></defs><path d="M635.91642954 926.28884786l362.96552291-362.96552292c28.34766519-28.34766519 28.34766519-74.29910036 0-102.64664988l-362.96552291-362.96552292c-28.34766519-28.34766519-74.29910036-28.34766519-102.64664989 0-28.34766519 28.34766519-28.34766519 74.29910036 0 102.64664989l239.04909337 239.04909338-695.87750052 0c-40.10774813 0-72.59310458 32.48547215-72.59310457 72.59310459s32.48547215 72.59310458 72.59310457 72.59310459l695.87750052 0-239.04909337 239.04909338c-14.15565541 14.15565541-21.26977964 32.73949017-21.26977965 51.32332494s7.07788554 37.16766955 21.26977965 51.32332495c28.34766519 28.34766519 74.29910036 28.34766519 102.64664989 0z" p-id="2557" fill="#ffffff"></path></svg>